<svg width="32" height="32" viewBox="0 0 32 32" fill="none" xmlns="http://www.w3.org/2000/svg">
  <!-- Background circle with modern gradient -->
  <circle cx="16" cy="16" r="16" fill="url(#modernGradient)"/>
  
  <!-- Modern chicken icon with geometric design -->
  <g transform="translate(8, 8)">
    <!-- Chicken body - modern geometric shape -->
    <ellipse cx="8" cy="10" rx="6" ry="8" fill="white" opacity="0.95"/>
    
    <!-- Chicken head - circular -->
    <circle cx="8" cy="4" r="3" fill="white" opacity="0.95"/>
    
    <!-- Eyes - modern dots -->
    <circle cx="7" cy="3" r="0.8" fill="#2D3748"/>
    <circle cx="9" cy="3" r="0.8" fill="#2D3748"/>
    
    <!-- Beak - triangular -->
    <path d="M8 5l-0.5 1h1l-0.5-1z" fill="#F6AD55"/>
    
    <!-- Comb - modern geometric -->
    <rect x="7" y="1" width="2" height="2" fill="#E53E3E" rx="0.5"/>
    
    <!-- Wings - geometric -->
    <ellipse cx="6" cy="8" rx="2" ry="3" fill="rgba(255,255,255,0.7)"/>
    <ellipse cx="10" cy="8" rx="2" ry="3" fill="rgba(255,255,255,0.7)"/>
    
    <!-- Feed grains - modern scattered dots -->
    <circle cx="2" cy="14" r="0.8" fill="#8B4513" opacity="0.8"/>
    <circle cx="4" cy="16" r="0.8" fill="#8B4513" opacity="0.8"/>
    <circle cx="6" cy="14" r="0.8" fill="#8B4513" opacity="0.8"/>
    <circle cx="10" cy="14" r="0.8" fill="#8B4513" opacity="0.8"/>
    <circle cx="12" cy="16" r="0.8" fill="#8B4513" opacity="0.8"/>
    <circle cx="14" cy="14" r="0.8" fill="#8B4513" opacity="0.8"/>
  </g>
  
  <!-- Modern gradient definition -->
  <defs>
    <linearGradient id="modernGradient" x1="0%" y1="0%" x2="100%" y2="100%">
      <stop offset="0%" style="stop-color:#667eea;stop-opacity:1" />
      <stop offset="50%" style="stop-color:#764ba2;stop-opacity:1" />
      <stop offset="100%" style="stop-color:#f093fb;stop-opacity:1" />
    </linearGradient>
  </defs>
</svg>